<svg xmlns="http://www.w3.org/2000/svg" width="143.51" height="21.511" viewBox="0 0 143.51 21.511">
  <g id="new-condensed" transform="translate(0.637 42.425)">
    <g id="HCL_logo" data-name="HCL logo" transform="translate(-0.637 -42.425)">
      <path id="Path_1635" data-name="Path 1635" d="M17.77-32.453l-1.522,3.411H3.978L-.635-32.453Z" transform="translate(0.637 42.683)" fill="#e6e6e6"/>
      <path id="Path_1636" data-name="Path 1636" d="M31.213-35.688h-18.4L14.33-39.1H26.6Z" transform="translate(0.984 42.511)" fill="#e6e6e6"/>
      <path id="Path_1637" data-name="Path 1637" d="M26.453-25.541H20.319l4.566-10.233H31.02Z" transform="translate(1.178 42.597)" fill="#e6e6e6"/>
      <path id="Path_1638" data-name="Path 1638" d="M3.93-42.425-.637-32.192H5.5l4.566-10.233Z" transform="translate(0.637 42.425)" fill="#e6e6e6"/>
    </g>
    <g id="Group_3244" data-name="Group 3244" transform="translate(40.314 -42.424)">
      <path id="Path_1932" data-name="Path 1932" d="M51.4-42.236h1.951v16.98H51.4v-7.78H41.233v7.78h-1.95v-16.98h1.95v7.515H51.4Z" transform="translate(-39.283 42.429)" fill="#e6e6e6" opacity="0.7"/>
      <path id="Path_1933" data-name="Path 1933" d="M59.968-26.105a6.88,6.88,0,0,1-2.735-3.011,10.535,10.535,0,0,1-.951-4.637,10.454,10.454,0,0,1,.951-4.624,6.9,6.9,0,0,1,2.735-3,8.127,8.127,0,0,1,4.19-1.047,9.269,9.269,0,0,1,3.228.542,7.148,7.148,0,0,1,2.552,1.6l-.746,1.517a8.673,8.673,0,0,0-2.409-1.494,7.154,7.154,0,0,0-2.6-.458A5.336,5.336,0,0,0,59.859-38.9a7.769,7.769,0,0,0-1.53,5.142,7.806,7.806,0,0,0,1.53,5.166,5.333,5.333,0,0,0,4.324,1.819,7.154,7.154,0,0,0,2.6-.458,8.674,8.674,0,0,0,2.409-1.494l.746,1.518a7.146,7.146,0,0,1-2.552,1.6,9.27,9.27,0,0,1-3.228.543A8.117,8.117,0,0,1,59.968-26.105Z" transform="translate(-38.844 42.424)" fill="#e6e6e6" opacity="0.7"/>
      <path id="Path_1934" data-name="Path 1934" d="M73.07-25.256v-16.98h1.975v15.3h8.5v1.685Z" transform="translate(-38.41 42.429)" fill="#e6e6e6" opacity="0.7"/>
      <path id="Path_1935" data-name="Path 1935" d="M86.97-27.2l.77-1.518A8.169,8.169,0,0,0,90.306-27.2a9.269,9.269,0,0,0,3.048.458,5.359,5.359,0,0,0,3.154-.8,2.594,2.594,0,0,0,1.108-2.24,1.861,1.861,0,0,0-.529-1.374,3.725,3.725,0,0,0-1.4-.842,21.057,21.057,0,0,0-2.336-.65,22.764,22.764,0,0,1-3.24-.963,5.021,5.021,0,0,1-2.048-1.446,3.706,3.706,0,0,1-.783-2.456,4.47,4.47,0,0,1,.758-2.566A4.9,4.9,0,0,1,90.21-41.81a8.109,8.109,0,0,1,3.264-.614,9.581,9.581,0,0,1,3.288.554,7.128,7.128,0,0,1,2.59,1.59L98.6-38.763a8.286,8.286,0,0,0-2.445-1.506,7.524,7.524,0,0,0-2.686-.469,5.1,5.1,0,0,0-3.1.831,2.73,2.73,0,0,0-1.119,2.325,2.157,2.157,0,0,0,.988,1.926,9.412,9.412,0,0,0,2.986,1.108q2.193.529,3.445.976a5.153,5.153,0,0,1,2.083,1.338,3.354,3.354,0,0,1,.831,2.384,4.3,4.3,0,0,1-.758,2.529,4.838,4.838,0,0,1-2.18,1.674,8.637,8.637,0,0,1-3.325.591A9.155,9.155,0,0,1,86.97-27.2Z" transform="translate(-38.052 42.424)" fill="#e6e6e6"/>
      <path id="Path_1936" data-name="Path 1936" d="M104.54-25.958a4.973,4.973,0,0,1-1.951-2.132,7.142,7.142,0,0,1-.686-3.216,7.138,7.138,0,0,1,.686-3.215,4.973,4.973,0,0,1,1.951-2.132,5.648,5.648,0,0,1,2.927-.747,5.717,5.717,0,0,1,2.939.747,4.954,4.954,0,0,1,1.962,2.132,7.152,7.152,0,0,1,.686,3.215,7.156,7.156,0,0,1-.686,3.216,4.954,4.954,0,0,1-1.962,2.132,5.717,5.717,0,0,1-2.939.747A5.648,5.648,0,0,1,104.54-25.958Zm5.588-2.011a5.2,5.2,0,0,0,.928-3.337,5.171,5.171,0,0,0-.94-3.312,3.208,3.208,0,0,0-2.65-1.167,3.205,3.205,0,0,0-2.65,1.167,5.164,5.164,0,0,0-.939,3.312,5.2,5.2,0,0,0,.926,3.325,3.214,3.214,0,0,0,2.662,1.156A3.227,3.227,0,0,0,110.128-27.969Z" transform="translate(-37.666 42.554)" fill="#e6e6e6"/>
      <path id="Path_1937" data-name="Path 1937" d="M115.9-25.256v-16.98h10.5v1.662h-8.551v5.853h8.07v1.662h-8.07v7.8Z" transform="translate(-37.304 42.429)" fill="#e6e6e6"/>
      <path id="Path_1938" data-name="Path 1938" d="M137.61-37.094h1.95l-6.936,16.042h-2l1.975-4.48-4.962-11.562h2.072l3.926,9.586Z" transform="translate(-37.001 42.562)" fill="#e6e6e6"/>
    </g>
  </g>
</svg>
